Coordinates
version=1
nRows=13
nColumns=40
inDegrees=yes

Units are S.I. units (second, meters, Newtons, ...)
If the header above contains a line with 'inDegrees', this indicates whether rotational values are in degrees (yes) or radians (no).

endheader
time	pelvis_tilt	pelvis_list	pelvis_rotation	pelvis_tx	pelvis_ty	pelvis_tz	hip_flexion_r	hip_adduction_r	hip_rotation_r	knee_angle_r	knee_angle_r_beta	ankle_angle_r	subtalar_angle_r	mtp_angle_r	hip_flexion_l	hip_adduction_l	hip_rotation_l	knee_angle_l	knee_angle_l_beta	ankle_angle_l	subtalar_angle_l	mtp_angle_l	lumbar_extension	lumbar_bending	lumbar_rotation	arm_flex_r	arm_add_r	arm_rot_r	elbow_flex_r	pro_sup_r	wrist_flex_r	wrist_dev_r	arm_flex_l	arm_add_l	arm_rot_l	elbow_flex_l	pro_sup_l	wrist_flex_l	wrist_dev_l
      1.11500000	     -5.42323214	     -0.06371750	     12.64709560	      1.04005606	      0.88915205	      0.16321227	     30.91025328	     -7.77304954	    -28.20960474	      9.33408610	      0.16291054	     -1.37851991	      7.41531759	      0.00000000	    -19.48680651	     -3.81930449	    -13.26495574	      8.48307632	      0.14805761	     -5.27932854	     13.39388311	      0.00000000	     15.52700656	      1.29766043	     -7.81658372	     44.65832760	    -15.78198067	     44.65832760	     75.05822050	     44.99571574	      0.00000000	      0.00000000	     44.65832760	    -15.78198067	     44.65832760	     75.05822050	     44.99571574	      0.00000000	      0.00000000
      1.12000000	     -4.86988151	     -0.64464975	     12.89057526	      1.04845072	      0.88970709	      0.16321299	     29.83172011	     -6.91561797	    -27.81834147	      8.89314385	      0.15521464	     -2.77658077	      5.76384516	      0.00000000	    -20.17557379	     -4.71589075	    -12.80194884	      8.80547608	      0.15368455	     -6.23986612	     12.22768501	      0.00000000	     15.14645796	      1.85621944	     -8.74720102	     44.65905845	    -15.77921702	     44.65905845	     75.05781919	     44.99579749	      0.00000000	      0.00000000	     44.65905845	    -15.77921702	     44.65905845	     75.05781919	     44.99579749	      0.00000000	      0.00000000
      1.12500000	     -4.61613396	     -0.94557428	     12.85966037	      1.05712145	      0.88970920	      0.16373507	     29.47781488	     -6.52305228	    -27.74837716	      9.49640684	      0.16574357	     -3.43870590	      5.07152239	      0.00000000	    -20.48453163	     -5.26352089	    -13.03053491	      9.43942998	      0.16474913	     -7.45025102	     11.55679367	      0.00000000	     15.06828981	      2.20677927	     -9.06103334	     44.65926828	    -15.77842432	     44.65926828	     75.05770434	     44.99582070	      0.00000000	      0.00000000	     44.65926828	    -15.77842432	     44.65926828	     75.05770434	     44.99582070	      0.00000000	      0.00000000
      1.13000000	     -4.18395202	     -1.42566005	     12.93276115	      1.06563394	      0.89019301	      0.16411871	     28.74365814	     -5.82112360	    -27.49859566	      9.57251515	      0.16707191	     -4.64600359	      3.75262532	      0.00000000	    -20.92908456	     -6.01533040	    -12.89694088	     10.03518977	      0.17514710	     -8.67250704	     10.38801057	      0.00000000	     14.80295235	      2.67510283	     -9.70268844	     44.66005101	    -15.77546985	     44.66005101	     75.05727721	     44.99590632	      0.00000000	      0.00000000	     44.66005101	    -15.77546985	     44.66005101	     75.05727721	     44.99590632	      0.00000000	      0.00000000
      1.13500000	     -3.82904040	     -1.82351348	     12.90218565	      1.07422392	      0.89055855	      0.16463153	     28.24672004	     -5.27828219	    -27.36980332	     10.05721048	      0.17553144	     -5.56405152	      2.80785334	      0.00000000	    -21.24102747	     -6.65896053	    -13.03072929	     10.77816869	      0.18811453	     -9.96793553	      9.35297242	      0.00000000	     14.62730329	      3.15349539	    -10.11556284	     44.66061689	    -15.77333658	     44.66061689	     75.05696974	     44.99596727	      0.00000000	      0.00000000	     44.66061689	    -15.77333658	     44.66061689	     75.05696974	     44.99596727	      0.00000000	      0.00000000
      1.14000000	     -3.51406450	     -2.17108937	     12.77027779	      1.08293628	      0.89090132	      0.16534680	     27.86042221	     -4.80113480	    -27.30123873	     10.72077891	      0.18711289	     -6.32621441	      2.18751842	      0.00000000	    -21.48017831	     -7.23254223	    -13.37875255	     11.61513926	      0.20272242	    -11.44074089	      8.41407619	      0.00000000	     14.47707317	      3.56742848	    -10.38176374	     44.66083527	    -15.77251406	     44.66083527	     75.05685143	     44.99599056	      0.00000000	      0.00000000	     44.66083527	    -15.77251406	     44.66083527	     75.05685143	     44.99599056	      0.00000000	      0.00000000
      1.14500000	     -3.16513688	     -2.55151730	     12.61922386	      1.09156798	      0.89140761	      0.16612928	     27.44104187	     -4.26620790	    -27.18361181	     11.37298298	      0.19849600	     -7.11252529	      1.50740678	      0.00000000	    -21.69254306	     -7.84001107	    -13.67006425	     12.53598941	      0.21879429	    -12.93421490	      7.33333651	      0.00000000	     14.30233177	      4.02611074	    -10.65129719	     44.66101954	    -15.77182027	     44.66101954	     75.05675173	     44.99601012	      0.00000000	      0.00000000	     44.66101954	    -15.77182027	     44.66101954	     75.05675173	     44.99601012	      0.00000000	      0.00000000
      1.15000000	     -2.80287892	     -2.95715436	     12.44097908	      1.10016710	      0.89201737	      0.16698680	     26.99055647	     -3.67022716	    -26.99575907	     11.95285401	      0.20861666	     -7.93868376	      0.72220122	      0.00000000	    -21.86702135	     -8.46479381	    -13.95054809	     13.54388756	      0.23638543	    -14.47593885	      6.06807786	      0.00000000	     14.08711728	      4.51819472	    -10.92211327	     44.66122897	    -15.77103201	     44.66122897	     75.05663856	     44.99603225	      0.00000000	      0.00000000	     44.66122897	    -15.77103201	     44.66122897	     75.05663856	     44.99603225	      0.00000000	      0.00000000
      1.15500000	     -2.44368260	     -3.34975217	     12.21501903	      1.10876827	      0.89269465	      0.16796173	     26.54221744	     -3.05863182	    -26.70818480	     12.53857471	      0.21883941	     -8.69804186	     -0.01629913	      0.00000000	    -22.00433561	     -9.06327921	    -14.25959336	     14.61900474	      0.25514977	    -16.06429816	      4.80383801	      0.00000000	     13.87622765	      4.97071068	    -11.14850584	     44.66141733	    -15.77032339	     44.66141733	     75.05653692	     44.99605205	      0.00000000	      0.00000000	     44.66141733	    -15.77032339	     44.66141733	     75.05653692	     44.99605205	      0.00000000	      0.00000000
      1.16000000	     -2.08792328	     -3.81710562	     11.85482217	      1.11719915	      0.89353647	      0.16932871	     25.93342124	     -2.09151105	    -25.71596069	     12.52941823	      0.21867960	    -10.04116232	     -1.73867595	      0.00000000	    -22.09480459	     -9.68182877	    -14.53700761	     15.77094266	      0.27525488	    -17.72025768	      3.14850974	      0.00000000	     13.62861158	      5.54114737	    -11.20936558	     44.66258399	    -15.76593944	     44.66258399	     75.05590999	     44.99617285	      0.00000000	      0.00000000	     44.66258399	    -15.76593944	     44.66258399	     75.05590999	     44.99617285	      0.00000000	      0.00000000
      1.16500000	     -1.72693484	     -4.15195729	     11.51609511	      1.12581042	      0.89429491	      0.17054328	     25.54536046	     -1.52912915	    -25.43023409	     13.30848353	      0.23227686	    -10.43452086	     -2.21958124	      0.00000000	    -22.14306025	    -10.22683954	    -15.02783018	     17.05542454	      0.29767331	    -19.40679520	      1.98667623	      0.00000000	     13.36835382	      5.93332513	    -11.34046393	     44.66275326	    -15.76530426	     44.66275326	     75.05581946	     44.99619009	      0.00000000	      0.00000000	     44.66275326	    -15.76530426	     44.66275326	     75.05581946	     44.99619009	      0.00000000	      0.00000000
      1.17000000	     -1.54917637	     -4.57885568	     11.11607731	      1.13429418	      0.89484684	      0.17199742	     25.26908326	     -0.74885692	    -24.69803621	     13.75589299	      0.24008562	    -11.17545458	     -3.41973539	      0.00000000	    -21.84126291	    -10.84754987	    -15.51849898	     18.66390454	      0.32574659	    -20.93866517	      0.35274386	      0.00000000	     13.33895411	      6.43680963	    -11.26519264	     44.66333520	    -15.76312207	     44.66333520	     75.05550897	     44.99624883	      0.00000000	      0.00000000	     44.66333520	    -15.76312207	     44.66333520	     75.05550897	     44.99624883	      0.00000000	      0.00000000
      1.17500000	     -1.13776453	     -4.86424649	     10.71260634	      1.14278638	      0.89576291	      0.17342800	     24.78933462	     -0.14819947	    -24.22549202	     14.47292303	      0.25260016	    -11.38180657	     -4.03262010	      0.00000000	    -21.83771686	    -11.37634232	    -16.09160419	     20.16094612	      0.35187489	    -22.66552254	     -0.84406570	      0.00000000	     12.97855155	      6.77116423	    -11.28391274	     44.66351579	    -15.76244538	     44.66351579	     75.05541286	     44.99626689	      0.00000000	      0.00000000	     44.66351579	    -15.76244538	     44.66351579	     75.05541286	     44.99626689	      0.00000000	      0.00000000
